<svg  viewBox="0 0 755 232" fill="none" xmlns="http://www.w3.org/2000/svg">
<path d="M10 157H738V167H10V157Z" fill="#F4EFFA"/>
<path d="M10.2 157V52H48.75C57.15 52 64.05 53.45 69.45 56.35C74.95 59.15 79.05 63 81.75 67.9C84.45 72.7 85.8 78.05 85.8 83.95C85.8 90.35 84.1 96.2 80.7 101.5C77.4 106.8 72.2 110.65 65.1 113.05L86.85 157H64.8L45.3 115.6H29.4V157H10.2ZM29.4 101.5H47.55C53.95 101.5 58.65 99.95 61.65 96.85C64.65 93.75 66.15 89.65 66.15 84.55C66.15 79.55 64.65 75.55 61.65 72.55C58.75 69.55 54 68.05 47.4 68.05H29.4V101.5ZM126.074 158.8C119.674 158.8 114.424 157.8 110.324 155.8C106.224 153.7 103.174 150.95 101.174 147.55C99.1738 144.15 98.1738 140.4 98.1738 136.3C98.1738 129.4 100.874 123.8 106.274 119.5C111.674 115.2 119.774 113.05 130.574 113.05H149.474V111.25C149.474 106.15 148.024 102.4 145.124 100C142.224 97.6 138.624 96.4 134.324 96.4C130.424 96.4 127.024 97.35 124.124 99.25C121.224 101.05 119.424 103.75 118.724 107.35H99.9738C100.474 101.95 102.274 97.25 105.374 93.25C108.574 89.25 112.674 86.2 117.674 84.1C122.674 81.9 128.274 80.8 134.474 80.8C145.074 80.8 153.424 83.45 159.524 88.75C165.624 94.05 168.674 101.55 168.674 111.25V157H152.324L150.524 145C148.324 149 145.224 152.3 141.224 154.9C137.324 157.5 132.274 158.8 126.074 158.8ZM130.424 143.8C135.924 143.8 140.174 142 143.174 138.4C146.274 134.8 148.224 130.35 149.024 125.05H132.674C127.574 125.05 123.924 126 121.724 127.9C119.524 129.7 118.424 131.95 118.424 134.65C118.424 137.55 119.524 139.8 121.724 141.4C123.924 143 126.824 143.8 130.424 143.8ZM186.996 157V82.6H203.946L205.446 95.2C207.746 90.8 211.046 87.3 215.346 84.7C219.746 82.1 224.896 80.8 230.796 80.8C239.996 80.8 247.146 83.7 252.246 89.5C257.346 95.3 259.896 103.8 259.896 115V157H240.696V116.8C240.696 110.4 239.396 105.5 236.796 102.1C234.196 98.7 230.146 97 224.646 97C219.246 97 214.796 98.9 211.296 102.7C207.896 106.5 206.196 111.8 206.196 118.6V157H186.996ZM278.256 157V49H297.456V112.75L323.856 82.6H346.656L316.206 116.5L351.606 157H327.606L297.456 119.65V157H278.256ZM393.507 158.8C386.007 158.8 379.357 157.2 373.557 154C367.757 150.8 363.207 146.3 359.907 140.5C356.607 134.7 354.957 128 354.957 120.4C354.957 112.7 356.557 105.85 359.757 99.85C363.057 93.85 367.557 89.2 373.257 85.9C379.057 82.5 385.857 80.8 393.657 80.8C400.957 80.8 407.407 82.4 413.007 85.6C418.607 88.8 422.957 93.2 426.057 98.8C429.257 104.3 430.857 110.45 430.857 117.25C430.857 118.35 430.807 119.5 430.707 120.7C430.707 121.9 430.657 123.15 430.557 124.45H374.007C374.407 130.25 376.407 134.8 380.007 138.1C383.707 141.4 388.157 143.05 393.357 143.05C397.257 143.05 400.507 142.2 403.107 140.5C405.807 138.7 407.807 136.4 409.107 133.6H428.607C427.207 138.3 424.857 142.6 421.557 146.5C418.357 150.3 414.357 153.3 409.557 155.5C404.857 157.7 399.507 158.8 393.507 158.8ZM393.657 96.4C388.957 96.4 384.807 97.75 381.207 100.45C377.607 103.05 375.307 107.05 374.307 112.45H411.357C411.057 107.55 409.257 103.65 405.957 100.75C402.657 97.85 398.557 96.4 393.657 96.4ZM481.206 158.8C474.206 158.8 467.956 157.1 462.456 153.7C456.956 150.3 452.606 145.65 449.406 139.75C446.206 133.85 444.606 127.15 444.606 119.65C444.606 112.15 446.206 105.5 449.406 99.7C452.606 93.8 456.956 89.2 462.456 85.9C467.956 82.5 474.206 80.8 481.206 80.8C486.806 80.8 491.706 81.85 495.906 83.95C500.106 86.05 503.506 89 506.106 92.8V49H525.306V157H508.206L506.106 146.35C503.706 149.65 500.506 152.55 496.506 155.05C492.606 157.55 487.506 158.8 481.206 158.8ZM485.256 142C491.456 142 496.506 139.95 500.406 135.85C504.406 131.65 506.406 126.3 506.406 119.8C506.406 113.3 504.406 108 500.406 103.9C496.506 99.7 491.456 97.6 485.256 97.6C479.156 97.6 474.106 99.65 470.106 103.75C466.106 107.85 464.106 113.15 464.106 119.65C464.106 126.15 466.106 131.5 470.106 135.7C474.106 139.9 479.156 142 485.256 142ZM555.207 71.05C551.707 71.05 548.807 70 546.507 67.9C544.307 65.8 543.207 63.15 543.207 59.95C543.207 56.75 544.307 54.15 546.507 52.15C548.807 50.05 551.707 49 555.207 49C558.707 49 561.557 50.05 563.757 52.15C566.057 54.15 567.207 56.75 567.207 59.95C567.207 63.15 566.057 65.8 563.757 67.9C561.557 70 558.707 71.05 555.207 71.05ZM545.607 157V82.6H564.807V157H545.607ZM588.298 157V98.65H578.098V82.6H588.298V73.9C588.298 64.9 590.548 58.5 595.048 54.7C599.648 50.9 605.848 49 613.648 49H621.898V65.35H616.648C613.348 65.35 610.998 66 609.598 67.3C608.198 68.6 607.498 70.8 607.498 73.9V82.6H623.548V98.65H607.498V157H588.298ZM648.054 190L665.304 152.05H660.804L631.854 82.6H652.704L673.554 134.95L695.304 82.6H715.704L668.454 190H648.054ZM725.08 158.05C721.58 158.05 718.68 156.95 716.38 154.75C714.18 152.55 713.08 149.9 713.08 146.8C713.08 143.6 714.18 140.9 716.38 138.7C718.68 136.5 721.58 135.4 725.08 135.4C728.58 135.4 731.43 136.5 733.63 138.7C735.93 140.9 737.08 143.6 737.08 146.8C737.08 149.9 735.93 152.55 733.63 154.75C731.43 156.95 728.58 158.05 725.08 158.05Z" fill="#F4EFFA"/>
<g style="mix-blend-mode:hard-light">
<path d="M20.2 149V44H58.75C67.15 44 74.05 45.45 79.45 48.35C84.95 51.15 89.05 55 91.75 59.9C94.45 64.7 95.8 70.05 95.8 75.95C95.8 82.35 94.1 88.2 90.7 93.5C87.4 98.8 82.2 102.65 75.1 105.05L96.85 149H74.8L55.3 107.6H39.4V149H20.2ZM39.4 93.5H57.55C63.95 93.5 68.65 91.95 71.65 88.85C74.65 85.75 76.15 81.65 76.15 76.55C76.15 71.55 74.65 67.55 71.65 64.55C68.75 61.55 64 60.05 57.4 60.05H39.4V93.5ZM136.074 150.8C129.674 150.8 124.424 149.8 120.324 147.8C116.224 145.7 113.174 142.95 111.174 139.55C109.174 136.15 108.174 132.4 108.174 128.3C108.174 121.4 110.874 115.8 116.274 111.5C121.674 107.2 129.774 105.05 140.574 105.05H159.474V103.25C159.474 98.15 158.024 94.4 155.124 92C152.224 89.6 148.624 88.4 144.324 88.4C140.424 88.4 137.024 89.35 134.124 91.25C131.224 93.05 129.424 95.75 128.724 99.35H109.974C110.474 93.95 112.274 89.25 115.374 85.25C118.574 81.25 122.674 78.2 127.674 76.1C132.674 73.9 138.274 72.8 144.474 72.8C155.074 72.8 163.424 75.45 169.524 80.75C175.624 86.05 178.674 93.55 178.674 103.25V149H162.324L160.524 137C158.324 141 155.224 144.3 151.224 146.9C147.324 149.5 142.274 150.8 136.074 150.8ZM140.424 135.8C145.924 135.8 150.174 134 153.174 130.4C156.274 126.8 158.224 122.35 159.024 117.05H142.674C137.574 117.05 133.924 118 131.724 119.9C129.524 121.7 128.424 123.95 128.424 126.65C128.424 129.55 129.524 131.8 131.724 133.4C133.924 135 136.824 135.8 140.424 135.8ZM196.996 149V74.6H213.946L215.446 87.2C217.746 82.8 221.046 79.3 225.346 76.7C229.746 74.1 234.896 72.8 240.796 72.8C249.996 72.8 257.146 75.7 262.246 81.5C267.346 87.3 269.896 95.8 269.896 107V149H250.696V108.8C250.696 102.4 249.396 97.5 246.796 94.1C244.196 90.7 240.146 89 234.646 89C229.246 89 224.796 90.9 221.296 94.7C217.896 98.5 216.196 103.8 216.196 110.6V149H196.996ZM288.256 149V41H307.456V104.75L333.856 74.6H356.656L326.206 108.5L361.606 149H337.606L307.456 111.65V149H288.256ZM403.507 150.8C396.007 150.8 389.357 149.2 383.557 146C377.757 142.8 373.207 138.3 369.907 132.5C366.607 126.7 364.957 120 364.957 112.4C364.957 104.7 366.557 97.85 369.757 91.85C373.057 85.85 377.557 81.2 383.257 77.9C389.057 74.5 395.857 72.8 403.657 72.8C410.957 72.8 417.407 74.4 423.007 77.6C428.607 80.8 432.957 85.2 436.057 90.8C439.257 96.3 440.857 102.45 440.857 109.25C440.857 110.35 440.807 111.5 440.707 112.7C440.707 113.9 440.657 115.15 440.557 116.45H384.007C384.407 122.25 386.407 126.8 390.007 130.1C393.707 133.4 398.157 135.05 403.357 135.05C407.257 135.05 410.507 134.2 413.107 132.5C415.807 130.7 417.807 128.4 419.107 125.6H438.607C437.207 130.3 434.857 134.6 431.557 138.5C428.357 142.3 424.357 145.3 419.557 147.5C414.857 149.7 409.507 150.8 403.507 150.8ZM403.657 88.4C398.957 88.4 394.807 89.75 391.207 92.45C387.607 95.05 385.307 99.05 384.307 104.45H421.357C421.057 99.55 419.257 95.65 415.957 92.75C412.657 89.85 408.557 88.4 403.657 88.4ZM491.206 150.8C484.206 150.8 477.956 149.1 472.456 145.7C466.956 142.3 462.606 137.65 459.406 131.75C456.206 125.85 454.606 119.15 454.606 111.65C454.606 104.15 456.206 97.5 459.406 91.7C462.606 85.8 466.956 81.2 472.456 77.9C477.956 74.5 484.206 72.8 491.206 72.8C496.806 72.8 501.706 73.85 505.906 75.95C510.106 78.05 513.506 81 516.106 84.8V41H535.306V149H518.206L516.106 138.35C513.706 141.65 510.506 144.55 506.506 147.05C502.606 149.55 497.506 150.8 491.206 150.8ZM495.256 134C501.456 134 506.506 131.95 510.406 127.85C514.406 123.65 516.406 118.3 516.406 111.8C516.406 105.3 514.406 100 510.406 95.9C506.506 91.7 501.456 89.6 495.256 89.6C489.156 89.6 484.106 91.65 480.106 95.75C476.106 99.85 474.106 105.15 474.106 111.65C474.106 118.15 476.106 123.5 480.106 127.7C484.106 131.9 489.156 134 495.256 134ZM565.207 63.05C561.707 63.05 558.807 62 556.507 59.9C554.307 57.8 553.207 55.15 553.207 51.95C553.207 48.75 554.307 46.15 556.507 44.15C558.807 42.05 561.707 41 565.207 41C568.707 41 571.557 42.05 573.757 44.15C576.057 46.15 577.207 48.75 577.207 51.95C577.207 55.15 576.057 57.8 573.757 59.9C571.557 62 568.707 63.05 565.207 63.05ZM555.607 149V74.6H574.807V149H555.607ZM598.298 149V90.65H588.098V74.6H598.298V65.9C598.298 56.9 600.548 50.5 605.048 46.7C609.648 42.9 615.848 41 623.648 41H631.898V57.35H626.648C623.348 57.35 620.998 58 619.598 59.3C618.198 60.6 617.498 62.8 617.498 65.9V74.6H633.548V90.65H617.498V149H598.298ZM658.054 182L675.304 144.05H670.804L641.854 74.6H662.704L683.554 126.95L705.304 74.6H725.704L678.454 182H658.054ZM735.08 150.05C731.58 150.05 728.68 148.95 726.38 146.75C724.18 144.55 723.08 141.9 723.08 138.8C723.08 135.6 724.18 132.9 726.38 130.7C728.68 128.5 731.58 127.4 735.08 127.4C738.58 127.4 741.43 128.5 743.63 130.7C745.93 132.9 747.08 135.6 747.08 138.8C747.08 141.9 745.93 144.55 743.63 146.75C741.43 148.95 738.58 150.05 735.08 150.05Z" fill="#2F184B"/>
</g>
</svg>
